<?xml version="1.0" encoding="UTF-8"?><svg xmlns="http://www.w3.org/2000/svg" viewBox="0 0 1043.72 264.31"><defs><style>.f{fill:#fff;}</style></defs><g id="a"/><g id="b"><g id="c"><g id="d"><g id="e"><path class="f" d="M352.53,204.15h-27.28V73.39h75v22.72h-47.72v33.72h44.37v22.63h-44.37v51.69Z"/><path class="f" d="M411.49,78.31c0-8.89,4.95-13.34,14.85-13.34s14.85,4.44,14.84,13.33c0,4.23-1.24,7.52-3.71,9.88s-6.18,3.54-11.13,3.53c-9.9,0-14.85-4.46-14.85-13.4Zm28.44,125.84h-27.28V104.15h27.28v100Z"/><path class="f" d="M502.82,205.97c-16.1,0-28.68-4.44-37.74-13.32s-13.59-21.46-13.6-37.75c0-16.75,4.19-29.7,12.57-38.86,8.38-9.16,19.96-13.74,34.75-13.73,14.13,0,25.13,4.02,33,12.07,7.87,8.05,11.8,19.17,11.81,33.37v13.22h-64.5c.3,7.76,2.6,13.81,6.89,18.16s10.33,6.52,18.11,6.51c5.75,.03,11.48-.6,17.08-1.88,5.8-1.41,11.43-3.42,16.81-6v21.11c-4.85,2.41-9.99,4.2-15.29,5.32-6.55,1.28-13.22,1.87-19.89,1.78Zm-3.84-84.25c-5.79,0-10.33,1.83-13.6,5.5-3.27,3.67-5.15,8.87-5.63,15.61h38.28c-.12-6.74-1.88-11.94-5.28-15.61-3.4-3.67-7.99-5.51-13.77-5.53v.03Z"/><path class="f" d="M582.11,204.15h-27.31V64.97h27.31V204.15Z"/><path class="f" d="M631.38,205.97c-11.75,0-20.98-4.56-27.69-13.68-6.71-9.12-10.07-21.76-10.06-37.93,0-16.39,3.41-29.17,10.24-38.32s16.24-13.74,28.24-13.76c12.58,0,22.18,4.89,28.8,14.67h.9c-1.29-6.59-1.98-13.28-2.06-20v-31.98h27.36V204.15h-20.94l-5.28-13h-1.16c-6.2,9.88-15.65,14.82-28.35,14.82Zm9.57-21.73c6.97,0,12.08-2.03,15.34-6.08s5.03-10.94,5.32-20.67v-3c0-10.73-1.67-18.42-5-23.07-3.33-4.65-8.71-6.99-16.14-7-5.78-.17-11.2,2.79-14.18,7.74-3.37,5.15-5.06,12.64-5.05,22.49,0,9.85,1.71,17.23,5.1,22.14,3.42,4.95,8.29,7.42,14.61,7.42v.03Z"/><path class="f" d="M782.11,169.36c0,11.51-4.17,20.49-12.52,26.92s-19.68,9.65-34,9.66c-15.51,0-27.43-2-35.78-6v-14.66c5.65,2.36,11.53,4.16,17.53,5.37,6.18,1.31,12.47,1.98,18.79,2,10.13,0,17.76-1.92,22.89-5.77,5.13-3.85,7.7-9.2,7.7-16.06,0-4.53-.91-8.24-2.73-11.13-1.82-2.9-4.86-5.56-9.13-8s-10.74-5.22-19.45-8.32c-12.16-4.35-20.85-9.51-26.07-15.47-5.22-5.96-7.83-13.74-7.83-23.35s3.79-18.09,11.36-24.06c7.57-5.97,17.57-8.95,30-8.94,12.32-.14,24.54,2.3,35.87,7.15l-4.74,13.24c-9.93-4.35-20.64-6.66-31.48-6.8-8.05,0-14.35,1.73-18.88,5.19-4.53,3.46-6.8,8.26-6.79,14.4,0,4.53,.83,8.25,2.5,11.14s4.48,5.56,8.45,8c4,2.41,10.07,5.08,18.2,8,13.72,4.89,23.16,10.14,28.31,15.75s7.75,12.85,7.8,21.74Z"/><path class="f" d="M780.05,106.12h15.92l21.47,55.91c4.71,12.76,7.63,21.97,8.77,27.63h.71c.78-3.04,2.41-8.24,4.88-15.6,2.47-7.36,10.58-30.01,24.31-67.94h15.92l-42.16,111.63c-4.17,11.03-9.04,18.85-14.62,23.48-5.58,4.63-12.42,6.94-20.53,6.93-4.51,0-9.01-.51-13.41-1.52v-11.9c3.62,.75,7.31,1.12,11,1.08,10.2,0,17.47-5.73,21.82-17.18l5.46-13.95-39.54-98.57Z"/><path class="f" d="M944.02,204.15v-63.41c0-8-1.82-13.96-5.46-17.89s-9.33-5.89-17.08-5.88c-10.26,0-17.77,2.77-22.54,8.31-4.77,5.54-7.15,14.69-7.16,27.46v51.43h-14.85V106.17h12.08l2.41,13.42h.69c3.1-4.89,7.54-8.78,12.79-11.23,5.73-2.71,12-4.08,18.33-4,11.81,0,20.7,2.85,26.66,8.55,5.96,5.7,8.94,14.81,8.94,27.32v64l-14.81-.08Z"/><path class="f" d="M1017.55,205.97c-14.19,0-25.19-4.37-33-13.1-7.81-8.73-11.7-21.09-11.67-37.08,0-16.39,3.95-29.05,11.85-38,7.9-8.95,19.15-13.42,33.76-13.42,4.75,0,9.49,.52,14.14,1.52,3.83,.73,7.56,1.93,11.09,3.58l-4.56,12.61c-3.49-1.37-7.08-2.46-10.74-3.26-3.37-.8-6.82-1.24-10.28-1.3-19.92,0-29.88,12.7-29.88,38.11,0,12.04,2.43,21.28,7.29,27.72s12.06,9.66,21.6,9.66c8.64-.09,17.19-1.88,25.14-5.27v13.15c-6.53,3.39-14.78,5.08-24.74,5.08Z"/><path class="f" d="M84.97,264.12c-.89,0-1.77-.12-2.62-.35-5.32-1.46-8.45-6.95-7-12.27L126.9,61.22c1.45-5.33,6.94-8.48,12.27-7.03,3.42,.93,6.1,3.6,7.03,7.03l51.59,190.28c1.55,5.3-1.49,10.85-6.79,12.4-5.3,1.55-10.85-1.49-12.4-6.79-.04-.13-.07-.25-.1-.38l-41.94-154.68-41.94,154.68c-1.18,4.36-5.13,7.38-9.64,7.39Z"/><path class="f" d="M272.99,139.41c-.09-39.41-29.33-72.68-68.4-77.84C200.83,24,167.32-3.42,129.74,.35c-32.38,3.24-57.99,28.85-61.23,61.23C25.52,67.09-4.87,106.41,.65,149.41c4.67,36.42,33.97,64.74,70.53,68.16l5.34-19.69c-32.27-1.3-57.38-28.51-56.08-60.78,1.25-31.14,26.71-55.83,57.87-56.13,5.52-.03,9.98-4.53,9.95-10.05,0-.13,0-.25,0-.38,0-.72-.06-1.43-.06-2.15,0-26.71,21.67-48.36,48.39-48.35,26.7,0,48.34,21.65,48.35,48.35,0,.72,0,1.43-.06,2.15-.24,5.52,4.04,10.18,9.56,10.42,.13,0,.25,0,.38,0,32.3,.04,58.44,26.26,58.4,58.56-.04,31.54-25.09,57.36-56.61,58.37l5.34,19.69c40.28-3.88,71.04-37.71,71.06-78.18Z"/></g></g></g></g></svg>